<svg width="44" height="24" viewBox="0 0 44 24" fill="none" xmlns="http://www.w3.org/2000/svg">
<path d="M1.77218 0.191467H42.2278C43.7458 0.191467 44 1.08739 44 2.19234V21.1916C44 22.2956 43.7458 23.1915 42.2278 23.1915H1.77218C0.252806 23.1916 0 22.2955 0 21.1917V2.19234C0 1.08739 0.254163 0.191467 1.77218 0.191467Z" fill="#9E9E9E"/>
<path d="M6.51302 7.19L2 17.1772H7.40271L8.07249 15.5848H9.60346L10.2732 17.1772H16.2201V15.9618L16.75 17.1772H19.8262L20.3561 15.9361V17.1772H32.724L34.2278 15.6261L35.636 17.1772L41.9884 17.19L37.4611 12.2115L41.9884 7.19H35.7345L34.2706 8.71235L32.9068 7.19H19.4521L18.2968 9.76777L17.1143 7.19H11.7229V8.36399L11.1231 7.19C11.1231 7.19 6.51302 7.19 6.51302 7.19ZM7.55841 8.60819H10.1919L13.1854 15.3805V8.60819H16.0704L18.3825 13.4639L20.5134 8.60819H23.3839V15.7746H21.6372L21.623 10.1591L19.0765 15.7746H17.5141L14.9534 10.1591V15.7746H11.3601L10.6789 14.168H6.99859L6.31879 15.7732H4.39357C4.39357 15.7732 7.55841 8.60819 7.55841 8.60819ZM24.9819 8.60819H32.0841L34.2564 10.9546L36.4986 8.60819H38.6708L35.3704 12.2101L38.6708 15.7704H36.4001L34.2278 13.3967L31.9742 15.7704H24.9819V8.60819ZM8.83954 9.82072L7.62702 12.6828H10.0507L8.83954 9.82072ZM26.7358 10.092V11.4002H30.6103V12.8584H26.7358V14.2866H31.0816L33.101 12.183L31.1673 10.0908H26.7358V10.092Z" fill="url(#paint0_linear_2305_444)"/>
<defs>
<linearGradient id="paint0_linear_2305_444" x1="21.9942" y1="7.19" x2="21.9942" y2="17.19" gradientUnits="userSpaceOnUse">
<stop stop-color="white"/>
<stop offset="1" stop-color="white" stop-opacity="0.75"/>
</linearGradient>
</defs>
</svg>
