<svg width="45" height="23" viewBox="0 0 45 23" fill="none" xmlns="http://www.w3.org/2000/svg">
<path d="M1.40401 18.3131C1.20282 17.9954 0.934563 17.4878 0.768873 17.112C-0.197647 14.9112 -0.241042 12.6329 0.571624 10.4477C1.46714 8.04928 3.17925 6.21659 5.39239 5.27894C8.1736 4.10493 11.2467 4.33353 13.9135 5.88725C15.6059 6.8404 16.8052 8.31275 17.7165 10.3973C17.8309 10.6646 17.9335 10.9475 18.0361 11.1916L1.40401 18.3131ZM6.95855 8.81645C4.98211 9.64949 3.96431 11.4706 4.17734 13.6016L12.5407 10.0641C11.1008 8.40574 9.23086 7.85555 6.95855 8.81645V8.81645ZM13.5822 16.5114C13.5782 16.5114 13.5782 16.5153 13.5782 16.5153L13.4046 16.3991C12.9036 17.1933 12.1265 17.8404 11.1442 18.2589C9.27425 19.057 7.5424 18.8517 6.29579 17.7784L6.18138 17.9489C6.18138 17.9489 6.18139 17.945 6.17744 17.945L4.05504 21.0641C4.58367 21.4244 5.1478 21.7266 5.73955 21.9707C8.08287 22.9278 10.4814 22.8813 12.8445 21.8739C14.5526 21.1454 15.8939 20.0373 16.8092 18.6308L13.5822 16.5114ZM23.847 0.691406V18.0264L26.5927 19.119L25.0344 22.6914L22.0047 21.4515C21.3262 21.1609 20.8607 20.7192 20.5135 20.2194C20.1782 19.7118 19.9296 19.0105 19.9296 18.0729V0.691406H23.847ZM30.9559 13.6132C30.9559 12.137 31.6226 10.8119 32.6719 9.91296L29.8552 6.82878C27.9458 8.48711 26.7426 10.9087 26.7426 13.6055C26.7387 16.3061 27.9419 18.7316 29.8473 20.3899L32.6601 17.3057C31.6147 16.4029 30.9559 15.0856 30.9559 13.6132V13.6132ZM35.9581 18.5301C35.4058 18.5301 34.8693 18.4371 34.3722 18.2744L33.027 22.1993C33.9462 22.5015 34.9285 22.6682 35.9542 22.6682C40.412 22.672 44.1321 19.5646 44.996 15.4381L40.8617 14.609C40.3923 16.8524 38.3764 18.534 35.9581 18.5301V18.5301ZM35.9699 4.55826C34.9482 4.55826 33.9659 4.72099 33.0467 5.01934L34.3801 8.94819C34.8811 8.78545 35.4137 8.69634 35.966 8.69634C38.3882 8.70021 40.408 10.3895 40.8657 12.6368L45 11.8154C44.1518 7.68119 40.4317 4.56213 35.9699 4.55826V4.55826Z" fill="url(#paint0_linear_2305_227)"/>
<defs>
<linearGradient id="paint0_linear_2305_227" x1="22.5" y1="0.691406" x2="22.5" y2="22.6914" gradientUnits="userSpaceOnUse">
<stop stop-color="white"/>
<stop offset="1" stop-color="white" stop-opacity="0.75"/>
</linearGradient>
</defs>
</svg>
