<svg width="50" height="23" viewBox="0 0 50 23" fill="none" xmlns="http://www.w3.org/2000/svg">
<path d="M13.726 0.710938H8.54403C6.25427 0.820176 4.38263 1.75073 3.84221 3.66968C3.56042 4.67045 3.40534 5.76956 3.18499 6.80698C2.0648 12.0819 1.07151 17.5022 0 22.6719H40.3437C43.4627 22.6719 45.6043 22.0068 46.1829 19.5089C46.4517 18.3486 46.7093 17.0345 46.9665 15.7596C47.9693 10.7892 48.9729 5.81898 50 0.710938H13.726Z" fill="url(#paint0_linear_2305_442)"/>
<path d="M13.3215 8.51576C13.5382 8.36512 13.8174 7.67909 13.4985 7.39347C13.3975 7.30305 13.2286 7.2768 12.9929 7.31701C12.7743 7.35425 12.6486 7.42922 12.5632 7.54658C12.426 7.73525 12.3001 8.30441 12.5127 8.51586C12.7198 8.72166 13.1836 8.61153 13.3215 8.51576V8.51576ZM10.2376 7.39347C10.0824 8.41009 9.90745 9.4069 9.73205 10.4032C8.60597 10.4152 7.45623 10.4593 6.37009 10.3777C6.57523 9.40293 6.72236 8.36958 6.92621 7.39347H5.71287C5.27856 9.8799 4.8834 12.406 4.39844 14.8414H5.6371C5.83134 13.5922 6.01312 12.3302 6.269 11.1429C7.3251 11.1167 8.59085 11.0709 9.60573 11.1685C9.39647 12.4028 9.14364 13.5928 8.94851 14.8414H10.1872C10.5853 12.3182 11.0045 9.81661 11.5017 7.39347H10.2376V7.39347ZM27.7553 9.53604C26.7916 9.14326 26.0338 9.80701 25.6825 10.4288C25.7622 10.1522 25.795 9.8282 25.8596 9.53604H24.899C24.6641 11.3737 24.3181 13.0989 23.9891 14.8414H25.0761C25.2284 13.8071 25.2942 12.4129 25.6321 11.4235C25.9022 10.6329 26.6091 9.95933 27.6291 10.3268C27.6432 10.0351 27.7259 9.81245 27.7553 9.53604V9.53604ZM28.3619 13.5916C28.2617 13.3304 28.2358 12.8991 28.2609 12.5712C28.317 11.8343 28.5832 10.937 28.994 10.5308C29.5608 9.97012 30.6798 10.0629 31.5724 10.3778C31.6 10.0742 31.6604 9.80344 31.6988 9.51059C30.235 9.26933 28.8459 9.41947 28.1094 10.1993C27.3883 10.9627 26.9158 12.7172 27.2498 13.8212C27.6408 15.113 29.3944 15.1832 30.8141 14.6885C30.8769 14.4288 30.9102 14.1393 30.9657 13.8723C30.1898 14.2788 28.7067 14.4902 28.3619 13.5916V13.5916ZM40.5712 9.56149C39.6105 9.0768 38.8107 9.8901 38.4985 10.3777C38.5874 10.1275 38.5925 9.79245 38.6754 9.53594H37.7149C37.4558 11.3576 37.1437 13.1256 36.7797 14.8413H37.8919C37.8989 14.1381 38.0358 13.618 38.1446 12.9285C38.377 11.456 38.7184 9.84127 40.4198 10.3267C40.476 10.0777 40.4995 9.79522 40.5712 9.56149ZM12.2093 9.53604C12.1798 9.5403 12.1818 9.57635 12.184 9.6125C11.9445 11.4198 11.6203 13.1419 11.274 14.8413H12.3609C12.6221 13.0218 12.9213 11.2408 13.2962 9.53594L12.2093 9.53604V9.53604ZM21.7644 9.43403C20.979 9.49514 20.3151 9.72312 19.8433 10.2247C19.2646 10.8399 18.796 12.1999 18.9333 13.4386C19.1292 15.2056 21.3096 15.1421 23.0536 14.7139C23.0833 14.4037 23.1577 14.1386 23.2052 13.8466C22.4869 14.1179 21.2395 14.4965 20.5004 14.0253C19.9425 13.6693 19.9392 12.7681 20.1212 11.9847C21.2933 11.9471 22.5116 11.9542 23.6854 11.9847C23.7598 11.4295 23.9729 10.8242 23.7865 10.2758C23.5407 9.55189 22.6603 9.36431 21.7644 9.43403ZM22.8007 11.3725H20.2475C20.3284 10.7802 20.8565 10.1293 21.6885 10.0972C22.4715 10.067 23.0322 10.3873 22.8007 11.3725V11.3725ZM17.6441 9.53604C16.7241 9.18733 15.6029 9.60358 15.1168 9.99953C15.1186 10.017 15.1052 10.0193 15.0909 10.0206C15.0991 10.0136 15.1082 10.0066 15.1168 9.99953C15.1167 9.99807 15.1166 9.99662 15.1163 9.99518C15.1245 9.82493 15.1838 9.70629 15.1921 9.53604H14.2568C13.867 12.1525 13.4049 14.6958 12.9171 17.2134H14.0041C14.1614 16.2329 14.2652 15.1985 14.4844 14.2802C14.7326 15.246 16.3535 15.0615 17.0375 14.6884C18.4486 13.9182 19.5371 10.2535 17.6441 9.53604V9.53604ZM16.7847 13.8466C16.2031 14.4681 14.7735 14.4588 14.6613 13.413C14.6125 12.958 14.7804 12.4809 14.8637 12.0102C14.9476 11.5337 15.0082 11.0766 15.091 10.6583C15.6638 9.95259 17.347 9.86732 17.5178 11.0409C17.6659 12.0598 17.2662 13.3319 16.7847 13.8466V13.8466ZM44.6156 7.24046C44.5225 8.06464 44.398 8.85724 44.2366 9.6125C41.5703 8.76088 39.9352 10.7403 39.9647 13.1835C39.9705 13.656 40.051 14.1245 40.3437 14.4588C40.8486 15.0346 42.2936 15.1725 43.0233 14.6883C43.1645 14.5946 43.3089 14.424 43.4024 14.3058C43.4728 14.2167 43.5844 13.9835 43.6047 14.0507C43.5662 14.3094 43.5089 14.5493 43.5037 14.8413H44.4895C44.6796 12.0912 45.267 9.74234 45.7029 7.24036H44.6157V7.24046H44.6156ZM42.1891 14.2547C41.4573 14.2705 41.0935 13.8136 41.0767 13.0559C41.0476 11.729 41.6244 10.2549 42.7957 10.1226C43.3411 10.0611 43.7359 10.1891 44.1355 10.3268C43.7686 11.8173 43.901 14.2176 42.1891 14.2547V14.2547ZM32.8109 9.53604C32.7574 9.83909 32.6752 10.1133 32.6087 10.4032C33.2501 10.2409 35.2473 9.74333 35.4398 10.6072C35.5037 10.8942 35.3935 11.1992 35.3134 11.4235C33.5074 11.2509 32.0354 11.5536 31.6481 12.8518C31.3887 13.7214 31.6771 14.577 32.2295 14.8159C33.2934 15.2758 34.5874 14.749 35.0353 14.0253C34.9888 14.2758 34.9447 14.529 34.9597 14.8414H35.8948C35.9049 13.9376 36.0352 13.206 36.1729 12.3927C36.2903 11.7001 36.5112 11.0145 36.4763 10.4032C36.3958 9.00332 34.0974 9.49851 32.8109 9.53604V9.53604ZM34.5803 13.8211C34.0202 14.3744 32.4478 14.5316 32.6087 13.2089C32.7421 12.1104 33.9276 11.877 35.2121 12.0355C35.1167 12.6365 35.0072 13.3995 34.5803 13.8211V13.8211Z" fill="#474343"/>
<defs>
<linearGradient id="paint0_linear_2305_442" x1="25" y1="0.710937" x2="25" y2="22.6719" gradientUnits="userSpaceOnUse">
<stop stop-color="white"/>
<stop offset="1" stop-color="white" stop-opacity="0.75"/>
</linearGradient>
</defs>
</svg>
